<svg id="Layer_1" data-name="Layer 1" xmlns="http://www.w3.org/2000/svg" width="60.48" height="48.21" viewBox="0 0 60.48 48.21"><defs><style>.cls-1{fill:#43af4a;}</style></defs><title>electro</title><path class="cls-1" d="M0,0V39.52H39.52V0H0ZM36,36H3.54V3.54H36V36Z"/><path class="cls-1" d="M20,9.29A10.47,10.47,0,1,0,30.43,19.76,10.48,10.48,0,0,0,20,9.29Zm0,17.4a6.93,6.93,0,1,1,6.93-6.93A6.93,6.93,0,0,1,20,26.69Z"/><rect class="cls-1" x="15.67" y="18.12" width="3.54" height="3.54"/><rect class="cls-1" x="21.04" y="18.12" width="3.54" height="3.54"/><path class="cls-1" d="M57.61,4.59V0.06H54.06V4.59H49V0.06H45.48V4.59H42.53v6.56a9,9,0,0,0,7.2,8.8V44.67H0v3.54H53.28V19.94a9,9,0,0,0,7.2-8.8V4.59H57.61Zm-0.67,6.56a5.43,5.43,0,1,1-10.86,0v-3H56.94v3Z"/></svg>