<svg id="Layer_1" data-name="Layer 1" xmlns="http://www.w3.org/2000/svg" xmlns:xlink="http://www.w3.org/1999/xlink" width="55.68" height="49.47" viewBox="0 0 55.68 49.47"><defs><style>.cls-1{fill:none;}.cls-2{fill:#fff;}.cls-3{fill:url(#New_Pattern_Swatch_15);}</style><pattern id="New_Pattern_Swatch_15" data-name="New Pattern Swatch 15" width="144" height="144" patternTransform="translate(117.28 6.8)" patternUnits="userSpaceOnUse" viewBox="0 0 144 144"><rect class="cls-1" width="144" height="144"/><rect class="cls-2" width="144" height="144"/></pattern></defs><title>fast</title><path class="cls-3" d="M55.68,15.83A13.41,13.41,0,0,0,33.44,5.73L26,0,0,20l5.55,7.21,2.56-2v15H2.55v9.25H52.93V40.21H44.7C47.72,35.91,55.68,23.83,55.68,15.83ZM42.26,5.66A10.18,10.18,0,0,1,52.43,15.83c0,6.82-7.17,17.87-10.17,22.19-3-4.29-10.16-15.23-10.16-22.19A10.18,10.18,0,0,1,42.26,5.66ZM15.35,24v16.2h-4V22.74L26,11.48l3,2.31a13.46,13.46,0,0,0-.15,2c0,8.13,7.94,20.1,11,24.38h-13V24H15.35Zm8.19,3.25v13H18.6v-13h4.94Zm-17.4-4.6L4.56,20.6,26,4.1l5.27,4.05A13.41,13.41,0,0,0,30,10.44L26,7.38ZM49.68,43.46v2.75H5.8V43.46H49.68Z"/><path class="cls-3" d="M42.26,9.08A6.78,6.78,0,1,0,49,15.87,6.79,6.79,0,0,0,42.26,9.08Zm0,10.32a3.53,3.53,0,1,1,3.53-3.53A3.54,3.54,0,0,1,42.26,19.4Z"/></svg>