<svg id="Layer_1" data-name="Layer 1" xmlns="http://www.w3.org/2000/svg" width="60.48" height="32.71" viewBox="0 0 60.48 32.71"><defs><style>.cls-1{fill:#43af4a;}</style></defs><title>fence</title><path class="cls-1" d="M54.38,12.12V7.55L47.71,0,41,7.55v4.57H36.91V7.55L30.24,0,23.57,7.55v4.57H19.44V7.55L12.77,0,6.1,7.55v4.57H0V22.18H6.1V32.71H19.44V22.18h4.14V32.71H36.91V22.18H41V32.71H54.38V22.18h6.1V12.12h-6.1ZM6.1,18.64H3.54v-3H6.1v3ZM9.65,29.17V8.89l3.12-3.54,3.12,3.54V29.17H9.65ZM23.57,18.64H19.44v-3h4.14v3Zm9.79-6.51v17H27.12V8.89l3.12-3.54,3.12,3.54v3.23ZM41,18.64H36.91v-3H41v3Zm3.54,10.54V8.89l3.12-3.54,3.12,3.54V29.17H44.59ZM56.94,18.64H54.38v-3h2.56v3Z"/><rect class="cls-1" x="10.98" y="14.77" width="3.58" height="3.58"/><rect class="cls-1" x="28.45" y="14.77" width="3.58" height="3.58"/><rect class="cls-1" x="45.92" y="14.77" width="3.58" height="3.58"/></svg>