<svg id="Layer_1" data-name="Layer 1" xmlns="http://www.w3.org/2000/svg" width="60.48" height="60.4" viewBox="0 0 60.48 60.4"><defs><style>.cls-1{fill:#43af4a;}</style></defs><title>gaz</title><path class="cls-1" d="M30.12,0L11.63,14.23,13.79,17,15.18,16V30.25H45.06V16L46.46,17l2.16-2.81Zm1.54,26.71H28.59V20.24h3.07v6.47Zm9.86,0H35.2v-10H25v10H18.72V13.24l11.4-8.77,11.4,8.77V26.71Z"/><path class="cls-1" d="M60.48,42.33V23.9a5.46,5.46,0,1,0-10.92,0V33a5.14,5.14,0,0,0-5.24,1.24L33.85,44.63V56.86H32.31V60.4H48V56.86H46.46V56.17ZM42.91,54.69v2.17H37.4V46.1l9.42-9.35A1.61,1.61,0,0,1,49.09,39l-6,6.09,2.53,2.48,6-6.09a5.11,5.11,0,0,0,1.48-3.75s0,0,0-.07h0V23.9a1.91,1.91,0,1,1,3.83,0V40.85Z"/><path class="cls-1" d="M26.63,56.86V44.63L16.16,34.24A5.14,5.14,0,0,0,10.92,33V23.9A5.46,5.46,0,1,0,0,23.9V42.33L14,56.17v0.68h-1.5V60.4H28.23V56.86H26.63Zm-3.54,0H17.57V54.69l-14-13.84V23.9a1.91,1.91,0,1,1,3.83,0V37.68h0s0,0,0,.07A5.11,5.11,0,0,0,8.86,41.5l6,6.09,2.53-2.48-6-6.09a1.61,1.61,0,0,1,2.28-2.26l9.42,9.35V56.86Z"/></svg>