<svg id="Layer_1" data-name="Layer 1" xmlns="http://www.w3.org/2000/svg" xmlns:xlink="http://www.w3.org/1999/xlink" width="55.68" height="46.55" viewBox="0 0 55.68 46.55"><defs><style>.cls-1{fill:none;}.cls-2{fill:#fff;}.cls-3{fill:url(#New_Pattern_Swatch_15);}</style><pattern id="New_Pattern_Swatch_15" data-name="New Pattern Swatch 15" width="144" height="144" patternTransform="translate(-28.83 40.31)" patternUnits="userSpaceOnUse" viewBox="0 0 144 144"><rect class="cls-1" width="144" height="144"/><rect class="cls-2" width="144" height="144"/></pattern></defs><title>here</title><path class="cls-3" d="M36.37,24.93a5.75,5.75,0,0,0-5-2.9h0a6.44,6.44,0,0,0-3.44,1l-0.07,0-0.07,0a6.47,6.47,0,0,0-3.49-1,5.75,5.75,0,0,0-5,2.9,6.06,6.06,0,0,0-.1,6.22,15,15,0,0,0,3.07,3.59l0.53,0.5c0.66,0.64,1.33,1.25,2,1.84s1.28,1.17,1.92,1.78l1.13,1.09L29,38.86c0.64-.61,1.29-1.21,1.92-1.78s1.31-1.2,2-1.84l0.53-.5a15,15,0,0,0,3.07-3.59A6.06,6.06,0,0,0,36.37,24.93ZM33.6,29.58a12.44,12.44,0,0,1-2.44,2.78l-0.55.52c-0.64.61-1.29,1.21-1.92,1.79l-0.85.78L27,34.66c-0.63-.58-1.29-1.18-1.92-1.79l-0.55-.52a12.44,12.44,0,0,1-2.44-2.78,2.84,2.84,0,0,1,0-2.94,2.47,2.47,0,0,1,2.21-1.34h0a3.19,3.19,0,0,1,1.7.51l1.81,1.13,1.81-1.13a3.19,3.19,0,0,1,1.72-.5,2.47,2.47,0,0,1,2.21,1.34A2.84,2.84,0,0,1,33.6,29.58Z"/><path class="cls-3" d="M27.84,0L0,21.42,5.83,29l2.86-2.2V46.55H47V26.8L49.85,29l5.83-7.58ZM12,43.28v-19L27.84,12.07,43.73,24.29v19H12Zm37.3-18.86L27.84,7.95,6.43,24.42,4.58,22,27.84,4.12,51.1,22Z"/></svg>