<svg id="Layer_1" data-name="Layer 1" xmlns="http://www.w3.org/2000/svg" xmlns:xlink="http://www.w3.org/1999/xlink" width="51.16" height="55.68" viewBox="0 0 51.16 55.68"><defs><style>.cls-1{fill:none;}.cls-2{fill:#fff;}.cls-3{fill:url(#New_Pattern_Swatch_15);}</style><pattern id="New_Pattern_Swatch_15" data-name="New Pattern Swatch 15" width="144" height="144" patternTransform="translate(-24.35 159.31)" patternUnits="userSpaceOnUse" viewBox="0 0 144 144"><rect class="cls-1" width="144" height="144"/><rect class="cls-2" width="144" height="144"/></pattern></defs><title>infra</title><path class="cls-3" d="M28.72,0L6.26,17.26,11.47,24l2-1.5v3.66A11.48,11.48,0,0,0,14,39.33l-1.6,1.6-2-2-9.2,9.2a4.28,4.28,0,0,0,0,6l0.25,0.25a4.28,4.28,0,0,0,6,0l9.2-9.2-2-2,1.64-1.64a11.46,11.46,0,0,0,16.88-4H44v-15L46,24l5.21-6.77ZM5.25,52.13a1,1,0,0,1-1.44,0l-0.25-.25a1,1,0,0,1,0-1.44l6.89-6.89,1.7,1.7Zm23.64-14a8.19,8.19,0,1,1,0-11.59A8.14,8.14,0,0,1,28.89,38.11Zm11.87-3.78h-6.4a11.45,11.45,0,0,0-17.68-11.5V20l12-9.26,12,9.26V34.33h0Zm4.6-14.87-15.58-12-1.05-.81L27.09,7.92l-15,11.54-1.24-1.61L28.72,4.11,46.59,17.85Z"/></svg>