<svg id="Layer_1" data-name="Layer 1" xmlns="http://www.w3.org/2000/svg" xmlns:xlink="http://www.w3.org/1999/xlink" width="43.94" height="55.68" viewBox="0 0 43.94 55.68"><defs><style>.cls-1{fill:none;}.cls-2{fill:#fff;}.cls-3{fill:url(#New_Pattern_Swatch_15);}.cls-4{fill:url(#New_Pattern_Swatch_15-3);}</style><pattern id="New_Pattern_Swatch_15" data-name="New Pattern Swatch 15" width="144" height="144" patternTransform="translate(-19.89 409.39)" patternUnits="userSpaceOnUse" viewBox="0 0 144 144"><rect class="cls-1" width="144" height="144"/><rect class="cls-2" width="144" height="144"/></pattern><pattern id="New_Pattern_Swatch_15-3" data-name="New Pattern Swatch 15" width="144" height="144" patternTransform="translate(114.11 411.39)" patternUnits="userSpaceOnUse" viewBox="0 0 144 144"><rect class="cls-1" width="144" height="144"/><rect class="cls-2" width="144" height="144"/></pattern></defs><title>paydelay</title><path class="cls-3" d="M22,5.56l-10.66,8.2,2,2.59L13.78,16V22.3H30.15V16l0.48,0.37,2-2.59ZM26.89,19H23.6V16.11H20.34V19H17V13.46L22,9.67l4.92,3.79V19Z"/><rect class="cls-4" x="13.98" y="26.21" width="21.9" height="3.26"/><rect class="cls-4" x="8.06" y="26.21" width="2.9" height="3.26"/><rect class="cls-4" x="8.06" y="32.92" width="2.9" height="3.26"/><rect class="cls-4" x="8.06" y="39.62" width="2.9" height="3.26"/><rect class="cls-4" x="8.06" y="46.33" width="2.9" height="3.26"/><rect class="cls-4" x="13.98" y="32.92" width="21.9" height="3.26"/><rect class="cls-4" x="13.98" y="39.62" width="21.9" height="3.26"/><rect class="cls-4" x="13.98" y="46.33" width="21.9" height="3.26"/><path class="cls-3" d="M0,0V55.68H43.94V0H0ZM40.67,52.51H3.26V3.17H40.67V52.51Z"/></svg>