<svg id="Layer_1" data-name="Layer 1" xmlns="http://www.w3.org/2000/svg" width="64.91" height="62.84" viewBox="0 0 64.91 62.84"><defs><style>.cls-1{fill:#43af4a;}</style></defs><title>roads</title><path class="cls-1" d="M54.69,17.94a5.4,5.4,0,1,0-7.64,0A5.4,5.4,0,0,0,54.69,17.94ZM42.22,32.42h7.57a2.15,2.15,0,0,0,2.59-.31L60,24.54a2.13,2.13,0,0,0,.2-0.3c0.18-.16.39-0.28,0.56-0.45a13.84,13.84,0,0,0,0-19.7,14.16,14.16,0,0,0-19.89,0,13.84,13.84,0,0,0,0,19.7c0.18,0.17.38,0.29,0.56,0.45a2.13,2.13,0,0,0,.2.3l3.66,3.63H42.08v0.08A9.72,9.72,0,0,0,32.49,38a9.61,9.61,0,0,0,9.73,9.59h8.65A5.46,5.46,0,0,1,56.27,53a5.4,5.4,0,0,1-5.4,5.4H19.44l3.81-3.77a2,2,0,0,0,.2-0.3c0.18-.16.39-0.28,0.56-0.45a13.84,13.84,0,0,0,0-19.7,14.16,14.16,0,0,0-19.89,0,13.84,13.84,0,0,0,0,19.7c0.18,0.17.38,0.29,0.56,0.45a2,2,0,0,0,.2.3l7.65,7.58a2.15,2.15,0,0,0,2.11.52H51a9.71,9.71,0,0,0,.1-19.42v0l-9.15,0A5.39,5.39,0,0,1,36.82,38,5.52,5.52,0,0,1,42.22,32.42ZM44,20.77h0l0,0A9.58,9.58,0,0,1,44,7.11a9.81,9.81,0,0,1,13.77,0,9.58,9.58,0,0,1,0,13.64l-0.08.06h0l-6.82,6.75ZM14.06,57.69L7.2,50.89h0l0,0a9.58,9.58,0,0,1,0-13.64,9.81,9.81,0,0,1,13.77,0,9.58,9.58,0,0,1,0,13.64l-0.08.06h0ZM10.3,40.56a5.4,5.4,0,1,0,7.64,0A5.4,5.4,0,0,0,10.3,40.56Z"/></svg>