<svg id="Layer_1" data-name="Layer 1" xmlns="http://www.w3.org/2000/svg" xmlns:xlink="http://www.w3.org/1999/xlink" width="56" height="46.82" viewBox="0 0 56 46.82"><defs><style>.cls-1{fill:none;}.cls-2{fill:#fff;}.cls-3{fill:url(#New_Pattern_Swatch_15);}</style><pattern id="New_Pattern_Swatch_15" data-name="New Pattern Swatch 15" width="144" height="144" patternTransform="translate(-127.67 -37.83)" patternUnits="userSpaceOnUse" viewBox="0 0 144 144"><rect class="cls-1" width="144" height="144"/><rect class="cls-2" width="144" height="144"/></pattern></defs><title>stages</title><path class="cls-3" d="M28,0L0,21.54l5.87,7.63L8.74,27V46.82H47.26V27l2.87,2.21L56,21.54Zm2.79,43.53H25.21V31.78h5.58V43.53Zm13.18,0h-9.9v-15H21.92v15H12V24.43L28,12.14,44,24.43v19.1h0Zm5.56-19-2.27-1.75h0l-3.81-2.93L28,8,6.47,24.56,4.61,22.14,28,4.14l23.39,18Z"/></svg>