<svg id="Layer_1" data-name="Layer 1" xmlns="http://www.w3.org/2000/svg" xmlns:xlink="http://www.w3.org/1999/xlink" width="53.61" height="47.14" viewBox="0 0 53.61 47.14"><defs><style>.cls-1{fill:none;}.cls-2{fill:#fff;}.cls-3{fill:url(#New_Pattern_Swatch_15);}</style><pattern id="New_Pattern_Swatch_15" data-name="New Pattern Swatch 15" width="144" height="144" patternTransform="translate(76.47 -15.56) scale(0.1)" patternUnits="userSpaceOnUse" viewBox="0 0 144 144"><rect class="cls-1" width="144" height="144"/><rect class="cls-2" width="144" height="144"/></pattern></defs><title>uk</title><path class="cls-3" d="M39,26.63a3.85,3.85,0,0,0-2.7-6.6H30.6V15.39A6.29,6.29,0,0,0,24.32,9.1a2,2,0,0,0-2,2v3.58c-0.86,1.22-4.86,5.62-8.49,9.46l-0.43.45V38.47l5.51,2.06a14.55,14.55,0,0,0,5.12.93H34.26a3.85,3.85,0,0,0,3.39-5.68,3.85,3.85,0,0,0,.7-4.57A3.85,3.85,0,0,0,39,26.63Zm-2.7-2H31.06v3.14h4.59a0.72,0.72,0,1,1,0,1.44H30.36v3.14H35a0.72,0.72,0,1,1,0,1.44H29.66v3.14h4.59a0.72,0.72,0,0,1,0,1.44H24a11.42,11.42,0,0,1-4-.73l-3.47-1.3V25.83C17.3,25,19,23.26,20.6,21.46,21.9,20,22.95,18.85,23.7,18c1.45-1.71,1.77-2.23,1.77-2.91v-2.6a3.16,3.16,0,0,1,2,2.94v6.2h0v1.57h8.88A0.72,0.72,0,0,1,36.34,24.6Z"/><path class="cls-3" d="M26.81,0L0,20.62,1.91,23.1,3.36,22V47.14H50.25V22L51.7,23.1l1.91-2.49ZM47.11,44H6.5V19.58L26.81,4,47.11,19.58V44Z"/></svg>